<svg version="1.1" id="Layer_1" xmlns="http://www.w3.org/2000/svg" xmlns:xlink="http://www.w3.org/1999/xlink" x="0px" y="0px"
	 width="100%" viewBox="0 0 2127 940" enable-background="new 0 0 2127 940" xml:space="preserve">
<path fill="#FFFFFF" opacity="1.000000" stroke="none" 
	d="
M1.000000,394.000000 
	C1.000000,263.000000 1.000000,132.000000 1.000000,1.000000 
	C710.000000,1.000000 1419.000000,1.000000 2128.000000,1.000000 
	C2128.000000,314.333344 2128.000000,627.666687 2127.500000,940.531372 
	C2127.000000,758.130432 2127.000000,576.198181 2127.000000,394.268555 
	C1882.065430,394.268555 1637.663208,394.268555 1393.274658,394.268555 
	C1393.274658,401.612366 1393.274658,408.684784 1393.274658,416.152405 
	C1630.951416,416.152405 1868.354004,416.152405 2105.719238,416.152405 
	C2105.719238,584.290649 2105.719238,752.026978 2105.719238,919.723633 
	C1411.374268,919.723633 717.309753,919.723633 23.279877,919.723633 
	C23.279877,751.710754 23.279877,583.974365 23.279877,415.836639 
	C262.628815,415.836639 501.698059,415.836639 740.711426,415.836639 
	C740.711426,408.358368 740.711426,401.285675 740.711426,394.000000 
	C493.948639,394.000000 247.474319,394.000000 1.000000,394.000000 
M1170.000000,614.523621 
	C1170.333618,619.784546 1170.289062,625.103394 1171.083130,630.293884 
	C1172.545288,639.851135 1175.317139,649.088440 1181.396973,656.822021 
	C1191.054565,669.106323 1202.210693,679.650146 1217.304199,685.042175 
	C1232.433594,690.447083 1247.651978,695.604004 1262.757446,701.073914 
	C1274.056763,705.165466 1285.387085,709.235291 1296.423340,713.968262 
	C1304.481689,717.424133 1308.732056,723.848328 1308.045410,733.110229 
	C1307.437500,741.310974 1303.142700,746.509094 1295.977173,750.057251 
	C1285.035278,755.475403 1273.473877,754.944153 1262.217407,752.781311 
	C1239.787842,748.471558 1218.941895,739.656677 1199.833252,727.162048 
	C1190.439697,721.019897 1181.713379,713.857483 1172.358154,706.914062 
	C1159.070557,729.930908 1145.775269,752.961060 1132.715820,775.582764 
	C1135.642334,778.343140 1137.696655,780.778015 1140.210205,782.567993 
	C1152.822754,791.550110 1165.760376,799.880554 1180.074463,806.145203 
	C1203.608398,816.445007 1228.095825,823.042603 1253.588257,824.777100 
	C1274.312622,826.187134 1295.128418,825.330200 1315.488159,820.008179 
	C1334.167603,815.125305 1351.644653,807.650146 1366.344116,794.979553 
	C1381.055420,782.298462 1391.733398,766.735718 1396.379639,747.560181 
	C1400.514893,760.367859 1406.127441,772.071838 1414.681763,782.485107 
	C1424.146362,794.006470 1435.591553,802.627563 1448.903809,809.053589 
	C1462.544312,815.638184 1476.914551,819.182251 1491.923706,821.244263 
	C1508.097900,823.466370 1524.172974,823.424500 1540.092285,820.772949 
	C1560.580566,817.360291 1579.436035,809.382019 1596.197510,796.920837 
	C1601.118896,793.262024 1605.708374,789.156433 1610.457886,785.249207 
	C1595.528687,769.414612 1581.197021,754.213867 1566.895386,739.044922 
	C1554.407104,748.673157 1541.228027,755.419678 1525.593140,757.300720 
	C1510.382202,759.130798 1496.754883,756.656860 1485.942749,745.267151 
	C1480.536987,739.572571 1477.448975,732.456543 1477.007202,724.345581 
	C1526.663086,724.345581 1575.732300,724.345581 1624.783081,724.345581 
	C1626.993774,770.221680 1645.428223,803.234619 1680.084473,816.745422 
	C1715.742920,830.646912 1747.653076,821.372375 1775.899902,796.200378 
	C1774.473145,804.193359 1773.101562,811.877380 1771.681641,819.832642 
	C1800.563965,819.832642 1828.516724,819.832642 1856.822388,819.832642 
	C1871.898071,741.310425 1886.955322,662.884155 1902.059082,584.216187 
	C1873.516602,584.216187 1845.405273,584.216187 1817.161255,584.216187 
	C1815.039673,595.125427 1812.952881,605.855530 1810.723633,617.317810 
	C1809.796875,616.123535 1809.329102,615.673340 1809.042236,615.128052 
	C1803.116211,603.862976 1794.023682,595.875610 1782.935181,589.997009 
	C1765.386475,580.693420 1746.527344,579.267090 1727.416992,582.171387 
	C1703.450806,585.813843 1682.958496,597.119202 1665.737549,613.949341 
	C1655.999634,623.466187 1648.086060,634.586243 1642.044922,646.888794 
	C1639.147339,652.789490 1636.484131,658.805298 1633.223267,665.827576 
	C1633.084106,663.414124 1633.200439,662.221436 1632.924683,661.127502 
	C1627.752319,640.602844 1618.427490,622.620178 1602.102661,608.492676 
	C1582.896606,591.871704 1560.216675,584.153015 1535.483032,582.200012 
	C1524.647217,581.344360 1513.623779,582.402344 1502.713989,583.061218 
	C1489.374756,583.866943 1476.830444,588.065979 1464.842529,593.690918 
	C1448.272461,601.465881 1434.184082,612.496704 1422.611206,626.806641 
	C1411.694946,640.304688 1403.619873,655.190674 1398.944824,671.915466 
	C1397.578125,676.804565 1396.157104,681.678406 1394.584839,687.175537 
	C1385.495361,667.533325 1370.779907,654.374817 1351.738892,646.535217 
	C1334.931885,639.615295 1317.551147,634.083740 1300.401367,628.002441 
	C1289.217896,624.036865 1277.744751,620.675110 1268.303711,613.036438 
	C1258.616455,605.198608 1260.813843,590.391907 1269.644287,585.515869 
	C1279.118530,580.284546 1288.998779,580.393005 1298.686646,582.222412 
	C1326.649902,587.502502 1352.491455,598.558350 1376.742798,613.326660 
	C1380.196533,615.429932 1381.970337,615.274048 1383.978394,611.482056 
	C1389.236816,601.552124 1394.934448,591.855286 1400.427124,582.048767 
	C1407.254761,569.859131 1414.052368,557.652649 1421.447876,544.405823 
	C1410.011108,538.607971 1399.082764,532.435547 1387.652222,527.404175 
	C1363.520996,516.782593 1337.965210,511.598206 1311.756470,510.118805 
	C1293.293701,509.076599 1274.910400,510.599304 1256.841553,514.989563 
	C1232.728882,520.848145 1211.330688,531.294617 1194.347412,550.042603 
	C1177.938599,568.156128 1170.566162,589.485779 1170.000000,614.523621 
M794.055359,421.609680 
	C785.341431,436.773834 779.816101,452.642029 782.077881,470.574738 
	C783.064880,478.400787 789.548706,482.470886 796.688354,479.156677 
	C803.230164,476.119995 807.528809,471.047150 810.417542,464.654877 
	C813.018494,458.899231 817.325989,455.814240 823.665405,455.939606 
	C829.654663,456.058075 834.393250,453.681000 838.815796,449.756256 
	C844.736938,444.501709 850.856750,439.738739 858.639587,436.881134 
	C871.012024,432.338287 883.193298,427.063263 894.939819,421.084778 
	C907.393311,414.746490 917.968933,404.655090 932.450317,402.401276 
	C940.930664,401.081451 946.322449,396.019501 950.162537,388.696320 
	C952.452454,384.329346 955.998230,383.566986 960.499268,385.980774 
	C961.346069,386.434845 962.329712,386.630402 963.244141,386.962006 
	C969.252625,389.140747 975.190674,391.543030 981.282043,393.457550 
	C991.921814,396.801544 1002.474304,401.488312 1013.385742,402.693726 
	C1040.774658,405.719482 1067.611816,400.330627 1094.199219,394.161194 
	C1113.549072,389.671204 1132.319092,382.878662 1152.450684,381.563263 
	C1177.345215,379.936707 1198.844482,388.083160 1218.234375,401.405396 
	C1213.718262,409.912018 1209.202393,417.992065 1205.094116,426.274261 
	C1200.836182,434.858429 1196.841919,443.580933 1192.993042,452.357239 
	C1191.068115,456.746460 1189.284546,461.298370 1188.308838,465.959167 
	C1187.845581,468.172485 1188.698364,471.802551 1190.290527,472.971161 
	C1191.766357,474.054352 1195.085083,472.967163 1197.473267,472.364014 
	C1199.563965,471.835968 1201.489258,470.652557 1204.180176,469.448822 
	C1203.879028,471.278625 1203.677368,472.069366 1203.629761,472.869293 
	C1203.394531,476.812927 1204.460449,480.849579 1208.233521,481.897064 
	C1210.540527,482.537598 1214.146484,480.825684 1216.329834,479.105286 
	C1220.983398,475.438568 1225.052612,471.036926 1229.447021,467.030396 
	C1230.552612,466.022400 1231.982056,465.369537 1234.087036,464.028229 
	C1233.742676,470.767822 1233.220337,476.356140 1233.307861,481.934875 
	C1233.336304,483.751343 1234.592773,485.970886 1236.000488,487.167511 
	C1236.717773,487.777252 1239.535889,487.035706 1240.509521,486.034637 
	C1245.316406,481.092255 1250.362305,476.237549 1254.304321,470.634583 
	C1259.539429,463.193665 1260.146362,462.902832 1265.506104,470.671814 
	C1265.789429,471.082397 1266.045166,471.511719 1266.323730,471.925720 
	C1269.868164,477.195343 1272.162109,477.369873 1275.013916,471.555298 
	C1278.756226,463.924774 1282.588379,456.112244 1284.656494,447.941254 
	C1287.526001,436.604187 1288.792480,424.861420 1290.818237,412.859283 
	C1292.864014,412.952118 1295.349121,412.837341 1297.758057,413.211945 
	C1311.155518,415.295135 1324.523193,417.569946 1337.925781,419.618011 
	C1342.478638,420.313751 1348.259033,416.508942 1348.903442,412.797455 
	C1349.533569,409.167297 1346.526611,405.717285 1341.514648,404.065247 
	C1338.073364,402.930969 1334.739502,401.469330 1331.293945,400.349915 
	C1313.264893,394.492401 1301.264526,381.985962 1294.932373,364.732208 
	C1290.167114,351.747925 1287.422363,338.008179 1283.996704,324.549133 
	C1277.065552,297.318268 1262.480347,274.623138 1241.858276,256.061859 
	C1219.410400,235.857224 1192.963501,222.625702 1163.415527,216.262497 
	C1146.912476,212.708527 1130.186035,210.106949 1113.484131,207.580826 
	C1088.729492,203.836823 1063.905518,200.551956 1039.117188,197.029175 
	C1037.488037,196.797653 1035.785034,196.459473 1034.328247,195.741241 
	C1023.942932,190.621094 1016.642151,182.341049 1010.903137,172.510544 
	C1001.576660,156.534790 992.053406,140.669083 983.018555,124.530037 
	C978.844238,117.073517 974.897400,109.327103 972.181335,101.262863 
	C969.503052,93.310638 968.805725,84.715363 966.718994,76.534958 
	C961.402832,55.694439 952.253540,36.809296 935.766052,22.483671 
	C908.389099,-1.303617 876.889160,-2.386901 843.986511,7.478294 
	C836.797119,9.633887 830.488525,14.651029 823.333069,17.014420 
	C812.997681,20.428112 802.299072,22.790823 791.682068,25.290213 
	C780.670959,27.882378 775.738892,37.729816 781.190857,47.260490 
	C784.344482,52.773369 789.513550,55.657150 795.662415,56.838226 
	C803.295715,58.304409 810.893494,59.354599 815.477783,67.197670 
	C818.375244,72.154793 822.196045,76.695984 826.182434,80.870125 
	C839.135132,94.433075 843.360168,111.061241 840.577087,128.691345 
	C837.851074,145.960159 832.596375,162.845840 828.169312,179.826111 
	C822.347595,202.155991 816.459351,224.437973 817.987793,247.863373 
	C819.097046,264.865112 821.165588,281.706268 829.065002,297.090332 
	C833.964294,306.631744 839.565796,315.828033 845.147766,324.999268 
	C851.131653,334.830841 848.805054,343.907684 838.559937,348.659119 
	C828.365906,353.386871 817.942017,357.642822 807.902771,362.672333 
	C799.961670,366.650696 792.174500,371.082153 784.841736,376.079498 
	C779.632690,379.629456 780.362244,386.755737 785.929626,389.226410 
	C788.367004,390.308075 791.737671,389.995789 794.513550,389.448578 
	C799.385315,388.488251 804.070618,386.596985 808.935730,385.583618 
	C813.998596,384.529022 819.181824,384.051941 824.312439,383.322357 
	C824.734863,383.998901 825.157349,384.675446 825.579834,385.351990 
	C823.731384,387.824524 822.155212,390.571594 819.987122,392.721771 
	C810.949341,401.684662 800.818481,409.635406 794.055359,421.609680 
M312.493774,730.004272 
	C313.329285,725.545410 314.144806,721.082703 315.004089,716.628418 
	C317.359741,704.417786 318.952728,691.894043 325.555267,681.040100 
	C334.667480,666.060669 346.095032,654.277222 365.589844,654.979858 
	C378.911377,655.459961 385.732483,663.334351 389.029358,674.029114 
	C391.731049,682.793091 389.059723,691.248230 387.584564,699.681091 
	C384.682007,716.273865 381.237213,732.772095 377.998810,749.305908 
	C374.387024,767.745972 370.715576,786.174561 367.158386,804.625122 
	C366.196625,809.613464 365.554840,814.663513 364.741852,819.840332 
	C393.643799,819.840332 421.605682,819.840332 449.933746,819.840332 
	C453.017303,803.038147 455.997559,786.307007 459.175568,769.613586 
	C462.689667,751.154602 466.311554,732.715271 470.026764,714.295654 
	C472.542908,701.820801 474.147034,689.008972 481.469574,678.064209 
	C490.710632,664.251892 501.987854,653.975952 520.226135,654.916382 
	C529.823242,655.411194 538.755188,661.811218 542.094788,670.838074 
	C545.908203,681.145813 543.306946,691.121765 541.381836,701.168640 
	C538.333252,717.078735 535.078857,732.949341 532.019714,748.857483 
	C528.407959,767.638855 524.901367,786.440369 521.371765,805.237427 
	C520.468628,810.047302 519.650635,814.873169 518.766968,819.841064 
	C547.674744,819.841064 575.641174,819.841064 604.044800,819.841064 
	C605.463379,811.973633 606.781311,804.163147 608.292114,796.390076 
	C611.474854,780.014099 614.752258,763.656494 618.003113,747.293823 
	C621.222412,731.090210 624.534851,714.904602 627.663940,698.683655 
	C631.101562,680.862671 634.854492,663.151001 632.146484,644.692810 
	C630.011414,630.139526 624.951599,616.996399 615.389099,606.050415 
	C595.776184,583.600098 569.982788,578.048645 541.902405,582.279785 
	C522.635132,585.182922 506.297455,595.170349 492.646973,609.014160 
	C486.344757,615.405640 480.907013,622.649536 474.936096,629.673096 
	C463.479553,601.211243 443.061981,584.969055 412.022369,581.809143 
	C381.677460,578.719971 356.889313,588.931519 335.503357,611.962463 
	C337.257812,601.714783 338.744141,593.033203 340.267365,584.136047 
	C311.418396,584.136047 283.454529,584.136047 255.087860,584.136047 
	C240.009354,662.664001 224.941803,741.134949 209.798874,819.998535 
	C237.837128,819.998535 265.150970,820.038025 292.463440,819.863770 
	C293.638458,819.856323 295.481873,818.066711 295.840485,816.780212 
	C296.881195,813.046753 297.267090,809.135559 298.011108,805.313782 
	C300.920868,790.367676 303.938049,775.442078 306.779663,760.483154 
	C308.657318,750.598694 310.303680,740.670288 312.493774,730.004272 
M657.000488,610.564453 
	C656.467712,613.432068 655.956848,616.303894 655.398376,619.166504 
	C652.606750,633.475952 649.766846,647.776062 647.013062,662.092712 
	C644.135986,677.049988 641.196899,691.997559 638.550171,706.996155 
	C636.489258,718.675110 633.986450,730.375610 633.288391,742.161865 
	C632.794739,750.496338 634.363159,759.121826 636.101562,767.388062 
	C641.321594,792.209290 656.261963,809.163940 679.930786,817.896851 
	C692.398254,822.496826 705.396484,823.793274 718.891479,822.204346 
	C732.235962,820.633240 744.637817,816.987610 755.707214,809.608154 
	C762.841187,804.852173 769.251221,799.010315 776.192139,793.490906 
	C774.678650,802.237976 773.176147,810.921143 771.628174,819.867432 
	C800.533325,819.867432 828.487793,819.867432 856.826782,819.867432 
	C871.903381,741.347229 886.971619,662.870789 902.115356,584.000977 
	C874.276001,584.000977 846.968506,583.956787 819.662598,584.145142 
	C818.434875,584.153564 816.397644,586.101868 816.128052,587.429016 
	C813.127747,602.196472 810.439087,617.026794 807.590637,631.825623 
	C805.111023,644.708496 802.567078,657.579163 799.992188,670.443298 
	C797.356445,683.611633 795.313721,696.946167 791.802246,709.879639 
	C787.497375,725.735107 778.332642,738.700745 763.148193,745.841003 
	C743.554199,755.054810 720.965759,745.745911 722.210327,720.404480 
	C722.740173,709.616455 725.430115,698.914429 727.405457,688.222656 
	C729.788452,675.324829 732.461548,662.480591 734.997375,649.610901 
	C737.971619,634.516174 740.993713,619.430481 743.872803,604.317566 
	C745.132080,597.707336 746.087769,591.039307 747.210876,584.218140 
	C718.374878,584.218140 690.269043,584.218140 662.250000,584.218140 
	C660.470642,592.857239 658.737976,601.269958 657.000488,610.564453 
M982.536682,763.000000 
	C974.611755,761.439270 966.420593,760.682190 958.813477,758.161987 
	C938.711121,751.501892 921.440552,739.789062 905.028259,725.913696 
	C893.321777,743.155273 881.647461,760.349487 869.314636,778.513550 
	C880.056213,785.955383 889.924622,793.744019 900.667908,800.039673 
	C923.945312,813.680359 949.519043,820.768677 976.276672,822.814453 
	C990.857666,823.929260 1005.570557,823.401855 1020.026733,820.043152 
	C1035.753906,816.389160 1050.166016,810.015198 1062.182007,799.184143 
	C1075.500977,787.178650 1082.967651,771.768188 1084.898560,754.060364 
	C1087.637695,728.938660 1078.480713,709.102844 1057.390991,694.696655 
	C1042.286621,684.379089 1025.224609,678.324097 1008.757019,670.901794 
	C1001.438477,667.603210 994.322815,663.584778 987.760620,658.974365 
	C983.497986,655.979553 984.202148,651.020813 987.501892,646.894836 
	C992.998108,640.022400 1000.702087,639.916260 1007.861877,641.233521 
	C1025.494629,644.477661 1041.668213,651.805908 1056.839111,661.330811 
	C1062.650879,664.979675 1068.487671,668.589050 1074.205933,672.149780 
	C1086.764526,655.118164 1098.982788,638.548340 1111.267578,621.888062 
	C1110.384155,620.959656 1109.826660,620.044250 1109.012207,619.566956 
	C1096.205688,612.059998 1083.876099,603.485107 1070.426147,597.384155 
	C1043.913086,585.357849 1016.117188,579.072693 986.538635,581.803955 
	C971.042358,583.234863 956.571106,587.021423 943.067627,594.494690 
	C929.124634,602.211182 918.516479,613.291077 911.760437,627.765320 
	C906.504761,639.025208 904.505676,651.026062 905.009521,663.425720 
	C905.571289,677.251221 910.590515,689.138733 919.890381,699.497192 
	C931.612305,712.553101 947.110840,719.228333 962.629395,726.009644 
	C973.859009,730.916748 985.141479,735.709656 996.274475,740.827271 
	C1000.193787,742.628845 1003.904663,745.574219 1003.837524,750.278564 
	C1003.768921,755.078796 1000.924866,759.132080 996.333435,760.710388 
	C992.267334,762.108154 987.781372,762.284424 982.536682,763.000000 
M1985.000000,738.497681 
	C1986.203003,732.262878 1987.388794,726.024719 1988.612427,719.794006 
	C1992.063843,702.222412 1995.600830,684.667236 1998.972778,667.080383 
	C2002.867432,646.767273 2006.576538,626.418640 2010.452515,606.101807 
	C2013.228516,591.551880 2016.151001,577.029785 2018.998657,562.493469 
	C2021.939941,547.478455 2024.895020,532.466064 2027.792969,517.442627 
	C2028.948608,511.451935 2029.966553,505.434692 2031.123657,499.003540 
	C2003.175293,499.003540 1975.868652,498.970154 1948.562866,499.119232 
	C1947.406738,499.125519 1945.492432,500.648529 1945.233765,501.766266 
	C1943.619507,508.744110 1942.329224,515.799072 1941.018555,522.844666 
	C1937.562866,541.421265 1934.249023,560.024780 1930.697144,578.582825 
	C1926.566406,600.165466 1922.197510,621.702454 1918.017944,643.275879 
	C1914.827515,659.744019 1911.822388,676.248108 1908.639404,692.717712 
	C1905.828979,707.259460 1902.868896,721.772278 1900.007568,736.304321 
	C1896.705933,753.073181 1893.394043,769.840332 1890.174683,786.625122 
	C1888.070435,797.595947 1886.122559,808.596741 1884.029175,819.994385 
	C1911.886841,819.994385 1939.360962,820.027039 1966.833862,819.870728 
	C1967.891602,819.864746 1969.656860,818.181641 1969.881958,817.041138 
	C1972.720703,802.661743 1975.264038,788.224426 1978.032104,773.830566 
	C1980.244873,762.323181 1982.661499,750.854980 1985.000000,738.497681 
M240.993790,531.394714 
	C241.826172,526.664917 242.658569,521.935181 243.527039,517.000366 
	C215.249496,517.000366 187.099243,516.956299 158.950455,517.138977 
	C157.635635,517.147522 155.428879,518.995361 155.165054,520.296326 
	C152.266724,534.588989 149.679581,548.944641 146.992874,563.280396 
	C144.306015,577.617004 141.683502,591.966370 138.881241,606.280457 
	C136.362503,619.146423 133.512894,631.947998 131.037415,644.821899 
	C128.190414,659.627869 125.696579,674.501709 122.864075,689.310608 
	C119.000374,709.510742 114.987495,729.682495 110.989624,749.856750 
	C107.779503,766.055969 104.433594,782.228516 101.275368,798.437683 
	C99.917198,805.408386 98.881233,812.441772 97.664452,819.650696 
	C98.905983,819.821716 99.538750,819.984802 100.171593,819.985107 
	C127.329239,819.999084 154.487122,819.948425 181.644241,820.069397 
	C184.707809,820.083069 185.590012,818.739319 186.021805,816.142944 
	C187.325745,808.302551 188.647705,800.462524 190.150665,792.658447 
	C192.691986,779.462891 195.431503,766.305542 197.988617,753.112915 
	C201.133728,736.886658 204.139587,720.633545 207.276611,704.405701 
	C209.796585,691.369751 212.474960,678.364502 214.987061,665.327148 
	C217.808014,650.686707 220.472900,636.016174 223.292969,621.375549 
	C227.152664,601.337646 231.066299,581.309937 235.013504,561.289001 
	C236.923065,551.603455 238.961914,541.943420 240.993790,531.394714 
z"/>
<path fill="#040707" opacity="1.000000" stroke="none" 
	d="
M1.000000,394.468658 
	C247.474319,394.000000 493.948639,394.000000 740.711426,394.000000 
	C740.711426,401.285675 740.711426,408.358368 740.711426,415.836639 
	C501.698059,415.836639 262.628815,415.836639 23.279877,415.836639 
	C23.279877,583.974365 23.279877,751.710754 23.279877,919.723633 
	C717.309753,919.723633 1411.374268,919.723633 2105.719238,919.723633 
	C2105.719238,752.026978 2105.719238,584.290649 2105.719238,416.152405 
	C1868.354004,416.152405 1630.951416,416.152405 1393.274658,416.152405 
	C1393.274658,408.684784 1393.274658,401.612366 1393.274658,394.268555 
	C1637.663208,394.268555 1882.065430,394.268555 2127.000000,394.268555 
	C2127.000000,576.198181 2127.000000,758.130432 2127.000000,940.531372 
	C1418.449219,941.000000 709.898376,941.000000 1.000000,941.000000 
	C1.000000,758.979248 1.000000,576.958313 1.000000,394.468658 
z"/>
<path fill="#00AEEF" opacity="1.000000" stroke="none" 
	d="
M1170.000000,614.035767 
	C1170.566162,589.485779 1177.938599,568.156128 1194.347412,550.042603 
	C1211.330688,531.294617 1232.728882,520.848145 1256.841553,514.989563 
	C1274.910400,510.599304 1293.293701,509.076599 1311.756470,510.118805 
	C1337.965210,511.598206 1363.520996,516.782593 1387.652222,527.404175 
	C1399.082764,532.435547 1410.011108,538.607971 1421.447876,544.405823 
	C1414.052368,557.652649 1407.254761,569.859131 1400.427124,582.048767 
	C1394.934448,591.855286 1389.236816,601.552124 1383.978394,611.482056 
	C1381.970337,615.274048 1380.196533,615.429932 1376.742798,613.326660 
	C1352.491455,598.558350 1326.649902,587.502502 1298.686646,582.222412 
	C1288.998779,580.393005 1279.118530,580.284546 1269.644287,585.515869 
	C1260.813843,590.391907 1258.616455,605.198608 1268.303711,613.036438 
	C1277.744751,620.675110 1289.217896,624.036865 1300.401367,628.002441 
	C1317.551147,634.083740 1334.931885,639.615295 1351.738892,646.535217 
	C1370.779907,654.374817 1385.495361,667.533325 1394.584839,687.175537 
	C1396.157104,681.678406 1397.578125,676.804565 1398.944824,671.915466 
	C1403.619873,655.190674 1411.694946,640.304688 1422.611206,626.806641 
	C1434.184082,612.496704 1448.272461,601.465881 1464.842529,593.690918 
	C1476.830444,588.065979 1489.374756,583.866943 1502.713989,583.061218 
	C1513.623779,582.402344 1524.647217,581.344360 1535.483032,582.200012 
	C1560.216675,584.153015 1582.896606,591.871704 1602.102661,608.492676 
	C1618.427490,622.620178 1627.752319,640.602844 1632.924683,661.127502 
	C1633.200439,662.221436 1633.084106,663.414124 1633.223267,665.827576 
	C1636.484131,658.805298 1639.147339,652.789490 1642.044922,646.888794 
	C1648.086060,634.586243 1655.999634,623.466187 1665.737549,613.949341 
	C1682.958496,597.119202 1703.450806,585.813843 1727.416992,582.171387 
	C1746.527344,579.267090 1765.386475,580.693420 1782.935181,589.997009 
	C1794.023682,595.875610 1803.116211,603.862976 1809.042236,615.128052 
	C1809.329102,615.673340 1809.796875,616.123535 1810.723633,617.317810 
	C1812.952881,605.855530 1815.039673,595.125427 1817.161255,584.216187 
	C1845.405273,584.216187 1873.516602,584.216187 1902.059082,584.216187 
	C1886.955322,662.884155 1871.898071,741.310425 1856.822388,819.832642 
	C1828.516724,819.832642 1800.563965,819.832642 1771.681641,819.832642 
	C1773.101562,811.877380 1774.473145,804.193359 1775.899902,796.200378 
	C1747.653076,821.372375 1715.742920,830.646912 1680.084473,816.745422 
	C1645.428223,803.234619 1626.993774,770.221680 1624.783081,724.345581 
	C1575.732300,724.345581 1526.663086,724.345581 1477.007202,724.345581 
	C1477.448975,732.456543 1480.536987,739.572571 1485.942749,745.267151 
	C1496.754883,756.656860 1510.382202,759.130798 1525.593140,757.300720 
	C1541.228027,755.419678 1554.407104,748.673157 1566.895386,739.044922 
	C1581.197021,754.213867 1595.528687,769.414612 1610.457886,785.249207 
	C1605.708374,789.156433 1601.118896,793.262024 1596.197510,796.920837 
	C1579.436035,809.382019 1560.580566,817.360291 1540.092285,820.772949 
	C1524.172974,823.424500 1508.097900,823.466370 1491.923706,821.244263 
	C1476.914551,819.182251 1462.544312,815.638184 1448.903809,809.053589 
	C1435.591553,802.627563 1424.146362,794.006470 1414.681763,782.485107 
	C1406.127441,772.071838 1400.514893,760.367859 1396.379639,747.560181 
	C1391.733398,766.735718 1381.055420,782.298462 1366.344116,794.979553 
	C1351.644653,807.650146 1334.167603,815.125305 1315.488159,820.008179 
	C1295.128418,825.330200 1274.312622,826.187134 1253.588257,824.777100 
	C1228.095825,823.042603 1203.608398,816.445007 1180.074463,806.145203 
	C1165.760376,799.880554 1152.822754,791.550110 1140.210205,782.567993 
	C1137.696655,780.778015 1135.642334,778.343140 1132.715820,775.582764 
	C1145.775269,752.961060 1159.070557,729.930908 1172.358154,706.914062 
	C1181.713379,713.857483 1190.439697,721.019897 1199.833252,727.162048 
	C1218.941895,739.656677 1239.787842,748.471558 1262.217407,752.781311 
	C1273.473877,754.944153 1285.035278,755.475403 1295.977173,750.057251 
	C1303.142700,746.509094 1307.437500,741.310974 1308.045410,733.110229 
	C1308.732056,723.848328 1304.481689,717.424133 1296.423340,713.968262 
	C1285.387085,709.235291 1274.056763,705.165466 1262.757446,701.073914 
	C1247.651978,695.604004 1232.433594,690.447083 1217.304199,685.042175 
	C1202.210693,679.650146 1191.054565,669.106323 1181.396973,656.822021 
	C1175.317139,649.088440 1172.545288,639.851135 1171.083130,630.293884 
	C1170.289062,625.103394 1170.333618,619.784546 1170.000000,614.035767 
M1735.994995,661.480164 
	C1727.671143,667.006775 1722.193237,674.891968 1718.019043,683.718201 
	C1711.861450,696.738647 1709.770752,710.295532 1711.895996,724.736938 
	C1715.671265,750.389099 1737.697021,763.855286 1761.650391,752.704712 
	C1775.320557,746.341003 1783.896484,735.351685 1789.091431,721.524048 
	C1795.678589,703.990662 1796.829956,686.560181 1787.768799,669.371643 
	C1782.777222,659.902893 1768.789917,651.856201 1758.233154,653.079285 
	C1750.451660,653.980835 1742.848999,655.833130 1735.994995,661.480164 
M1538.422974,644.865601 
	C1531.957886,644.399353 1525.267090,642.651245 1519.076294,643.741882 
	C1507.304199,645.815613 1498.702026,653.587830 1492.034790,663.226562 
	C1488.514404,668.315979 1485.707031,673.898621 1482.239014,679.838867 
	C1506.833374,679.838867 1530.128174,679.838867 1553.363159,679.838867 
	C1558.575073,665.676819 1551.261230,649.986389 1538.422974,644.865601 
z"/>
<path fill="#050808" opacity="1.000000" stroke="none" 
	d="
M794.220825,421.283813 
	C800.818481,409.635406 810.949341,401.684662 819.987122,392.721771 
	C822.155212,390.571594 823.731384,387.824524 825.579834,385.351990 
	C825.157349,384.675446 824.734863,383.998901 824.312439,383.322357 
	C819.181824,384.051941 813.998596,384.529022 808.935730,385.583618 
	C804.070618,386.596985 799.385315,388.488251 794.513550,389.448578 
	C791.737671,389.995789 788.367004,390.308075 785.929626,389.226410 
	C780.362244,386.755737 779.632690,379.629456 784.841736,376.079498 
	C792.174500,371.082153 799.961670,366.650696 807.902771,362.672333 
	C817.942017,357.642822 828.365906,353.386871 838.559937,348.659119 
	C848.805054,343.907684 851.131653,334.830841 845.147766,324.999268 
	C839.565796,315.828033 833.964294,306.631744 829.065002,297.090332 
	C821.165588,281.706268 819.097046,264.865112 817.987793,247.863373 
	C816.459351,224.437973 822.347595,202.155991 828.169312,179.826111 
	C832.596375,162.845840 837.851074,145.960159 840.577087,128.691345 
	C843.360168,111.061241 839.135132,94.433075 826.182434,80.870125 
	C822.196045,76.695984 818.375244,72.154793 815.477783,67.197670 
	C810.893494,59.354599 803.295715,58.304409 795.662415,56.838226 
	C789.513550,55.657150 784.344482,52.773369 781.190857,47.260490 
	C775.738892,37.729816 780.670959,27.882378 791.682068,25.290213 
	C802.299072,22.790823 812.997681,20.428112 823.333069,17.014420 
	C830.488525,14.651029 836.797119,9.633887 843.986511,7.478294 
	C876.889160,-2.386901 908.389099,-1.303617 935.766052,22.483671 
	C952.253540,36.809296 961.402832,55.694439 966.718994,76.534958 
	C968.805725,84.715363 969.503052,93.310638 972.181335,101.262863 
	C974.897400,109.327103 978.844238,117.073517 983.018555,124.530037 
	C992.053406,140.669083 1001.576660,156.534790 1010.903137,172.510544 
	C1016.642151,182.341049 1023.942932,190.621094 1034.328247,195.741241 
	C1035.785034,196.459473 1037.488037,196.797653 1039.117188,197.029175 
	C1063.905518,200.551956 1088.729492,203.836823 1113.484131,207.580826 
	C1130.186035,210.106949 1146.912476,212.708527 1163.415527,216.262497 
	C1192.963501,222.625702 1219.410400,235.857224 1241.858276,256.061859 
	C1262.480347,274.623138 1277.065552,297.318268 1283.996704,324.549133 
	C1287.422363,338.008179 1290.167114,351.747925 1294.932373,364.732208 
	C1301.264526,381.985962 1313.264893,394.492401 1331.293945,400.349915 
	C1334.739502,401.469330 1338.073364,402.930969 1341.514648,404.065247 
	C1346.526611,405.717285 1349.533569,409.167297 1348.903442,412.797455 
	C1348.259033,416.508942 1342.478638,420.313751 1337.925781,419.618011 
	C1324.523193,417.569946 1311.155518,415.295135 1297.758057,413.211945 
	C1295.349121,412.837341 1292.864014,412.952118 1290.818237,412.859283 
	C1288.792480,424.861420 1287.526001,436.604187 1284.656494,447.941254 
	C1282.588379,456.112244 1278.756226,463.924774 1275.013916,471.555298 
	C1272.162109,477.369873 1269.868164,477.195343 1266.323730,471.925720 
	C1266.045166,471.511719 1265.789429,471.082397 1265.506104,470.671814 
	C1260.146362,462.902832 1259.539429,463.193665 1254.304321,470.634583 
	C1250.362305,476.237549 1245.316406,481.092255 1240.509521,486.034637 
	C1239.535889,487.035706 1236.717773,487.777252 1236.000488,487.167511 
	C1234.592773,485.970886 1233.336304,483.751343 1233.307861,481.934875 
	C1233.220337,476.356140 1233.742676,470.767822 1234.087036,464.028229 
	C1231.982056,465.369537 1230.552612,466.022400 1229.447021,467.030396 
	C1225.052612,471.036926 1220.983398,475.438568 1216.329834,479.105286 
	C1214.146484,480.825684 1210.540527,482.537598 1208.233521,481.897064 
	C1204.460449,480.849579 1203.394531,476.812927 1203.629761,472.869293 
	C1203.677368,472.069366 1203.879028,471.278625 1204.180176,469.448822 
	C1201.489258,470.652557 1199.563965,471.835968 1197.473267,472.364014 
	C1195.085083,472.967163 1191.766357,474.054352 1190.290527,472.971161 
	C1188.698364,471.802551 1187.845581,468.172485 1188.308838,465.959167 
	C1189.284546,461.298370 1191.068115,456.746460 1192.993042,452.357239 
	C1196.841919,443.580933 1200.836182,434.858429 1205.094116,426.274261 
	C1209.202393,417.992065 1213.718262,409.912018 1218.234375,401.405396 
	C1198.844482,388.083160 1177.345215,379.936707 1152.450684,381.563263 
	C1132.319092,382.878662 1113.549072,389.671204 1094.199219,394.161194 
	C1067.611816,400.330627 1040.774658,405.719482 1013.385742,402.693726 
	C1002.474304,401.488312 991.921814,396.801544 981.282043,393.457550 
	C975.190674,391.543030 969.252625,389.140747 963.244141,386.962006 
	C962.329712,386.630402 961.346069,386.434845 960.499268,385.980774 
	C955.998230,383.566986 952.452454,384.329346 950.162537,388.696320 
	C946.322449,396.019501 940.930664,401.081451 932.450317,402.401276 
	C917.968933,404.655090 907.393311,414.746490 894.939819,421.084778 
	C883.193298,427.063263 871.012024,432.338287 858.639587,436.881134 
	C850.856750,439.738739 844.736938,444.501709 838.815796,449.756256 
	C834.393250,453.681000 829.654663,456.058075 823.665405,455.939606 
	C817.325989,455.814240 813.018494,458.899231 810.417542,464.654877 
	C807.528809,471.047150 803.230164,476.119995 796.688354,479.156677 
	C789.548706,482.470886 783.064880,478.400787 782.077881,470.574738 
	C779.816101,452.642029 785.341431,436.773834 794.220825,421.283813 
z"/>
<path fill="#1F1B6C" opacity="1.000000" stroke="none" 
	d="
M312.273682,730.382935 
	C310.303680,740.670288 308.657318,750.598694 306.779663,760.483154 
	C303.938049,775.442078 300.920868,790.367676 298.011108,805.313782 
	C297.267090,809.135559 296.881195,813.046753 295.840485,816.780212 
	C295.481873,818.066711 293.638458,819.856323 292.463440,819.863770 
	C265.150970,820.038025 237.837128,819.998535 209.798874,819.998535 
	C224.941803,741.134949 240.009354,662.664001 255.087860,584.136047 
	C283.454529,584.136047 311.418396,584.136047 340.267365,584.136047 
	C338.744141,593.033203 337.257812,601.714783 335.503357,611.962463 
	C356.889313,588.931519 381.677460,578.719971 412.022369,581.809143 
	C443.061981,584.969055 463.479553,601.211243 474.936096,629.673096 
	C480.907013,622.649536 486.344757,615.405640 492.646973,609.014160 
	C506.297455,595.170349 522.635132,585.182922 541.902405,582.279785 
	C569.982788,578.048645 595.776184,583.600098 615.389099,606.050415 
	C624.951599,616.996399 630.011414,630.139526 632.146484,644.692810 
	C634.854492,663.151001 631.101562,680.862671 627.663940,698.683655 
	C624.534851,714.904602 621.222412,731.090210 618.003113,747.293823 
	C614.752258,763.656494 611.474854,780.014099 608.292114,796.390076 
	C606.781311,804.163147 605.463379,811.973633 604.044800,819.841064 
	C575.641174,819.841064 547.674744,819.841064 518.766968,819.841064 
	C519.650635,814.873169 520.468628,810.047302 521.371765,805.237427 
	C524.901367,786.440369 528.407959,767.638855 532.019714,748.857483 
	C535.078857,732.949341 538.333252,717.078735 541.381836,701.168640 
	C543.306946,691.121765 545.908203,681.145813 542.094788,670.838074 
	C538.755188,661.811218 529.823242,655.411194 520.226135,654.916382 
	C501.987854,653.975952 490.710632,664.251892 481.469574,678.064209 
	C474.147034,689.008972 472.542908,701.820801 470.026764,714.295654 
	C466.311554,732.715271 462.689667,751.154602 459.175568,769.613586 
	C455.997559,786.307007 453.017303,803.038147 449.933746,819.840332 
	C421.605682,819.840332 393.643799,819.840332 364.741852,819.840332 
	C365.554840,814.663513 366.196625,809.613464 367.158386,804.625122 
	C370.715576,786.174561 374.387024,767.745972 377.998810,749.305908 
	C381.237213,732.772095 384.682007,716.273865 387.584564,699.681091 
	C389.059723,691.248230 391.731049,682.793091 389.029358,674.029114 
	C385.732483,663.334351 378.911377,655.459961 365.589844,654.979858 
	C346.095032,654.277222 334.667480,666.060669 325.555267,681.040100 
	C318.952728,691.894043 317.359741,704.417786 315.004089,716.628418 
	C314.144806,721.082703 313.329285,725.545410 312.273682,730.382935 
z"/>
<path fill="#1F1B6C" opacity="1.000000" stroke="none" 
	d="
M657.002930,610.123535 
	C658.737976,601.269958 660.470642,592.857239 662.250000,584.218140 
	C690.269043,584.218140 718.374878,584.218140 747.210876,584.218140 
	C746.087769,591.039307 745.132080,597.707336 743.872803,604.317566 
	C740.993713,619.430481 737.971619,634.516174 734.997375,649.610901 
	C732.461548,662.480591 729.788452,675.324829 727.405457,688.222656 
	C725.430115,698.914429 722.740173,709.616455 722.210327,720.404480 
	C720.965759,745.745911 743.554199,755.054810 763.148193,745.841003 
	C778.332642,738.700745 787.497375,725.735107 791.802246,709.879639 
	C795.313721,696.946167 797.356445,683.611633 799.992188,670.443298 
	C802.567078,657.579163 805.111023,644.708496 807.590637,631.825623 
	C810.439087,617.026794 813.127747,602.196472 816.128052,587.429016 
	C816.397644,586.101868 818.434875,584.153564 819.662598,584.145142 
	C846.968506,583.956787 874.276001,584.000977 902.115356,584.000977 
	C886.971619,662.870789 871.903381,741.347229 856.826782,819.867432 
	C828.487793,819.867432 800.533325,819.867432 771.628174,819.867432 
	C773.176147,810.921143 774.678650,802.237976 776.192139,793.490906 
	C769.251221,799.010315 762.841187,804.852173 755.707214,809.608154 
	C744.637817,816.987610 732.235962,820.633240 718.891479,822.204346 
	C705.396484,823.793274 692.398254,822.496826 679.930786,817.896851 
	C656.261963,809.163940 641.321594,792.209290 636.101562,767.388062 
	C634.363159,759.121826 632.794739,750.496338 633.288391,742.161865 
	C633.986450,730.375610 636.489258,718.675110 638.550171,706.996155 
	C641.196899,691.997559 644.135986,677.049988 647.013062,662.092712 
	C649.766846,647.776062 652.606750,633.475952 655.398376,619.166504 
	C655.956848,616.303894 656.467712,613.432068 657.002930,610.123535 
z"/>
<path fill="#1F1B6C" opacity="1.000000" stroke="none" 
	d="
M983.008728,763.000000 
	C987.781372,762.284424 992.267334,762.108154 996.333435,760.710388 
	C1000.924866,759.132080 1003.768921,755.078796 1003.837524,750.278564 
	C1003.904663,745.574219 1000.193787,742.628845 996.274475,740.827271 
	C985.141479,735.709656 973.859009,730.916748 962.629395,726.009644 
	C947.110840,719.228333 931.612305,712.553101 919.890381,699.497192 
	C910.590515,689.138733 905.571289,677.251221 905.009521,663.425720 
	C904.505676,651.026062 906.504761,639.025208 911.760437,627.765320 
	C918.516479,613.291077 929.124634,602.211182 943.067627,594.494690 
	C956.571106,587.021423 971.042358,583.234863 986.538635,581.803955 
	C1016.117188,579.072693 1043.913086,585.357849 1070.426147,597.384155 
	C1083.876099,603.485107 1096.205688,612.059998 1109.012207,619.566956 
	C1109.826660,620.044250 1110.384155,620.959656 1111.267578,621.888062 
	C1098.982788,638.548340 1086.764526,655.118164 1074.205933,672.149780 
	C1068.487671,668.589050 1062.650879,664.979675 1056.839111,661.330811 
	C1041.668213,651.805908 1025.494629,644.477661 1007.861877,641.233521 
	C1000.702087,639.916260 992.998108,640.022400 987.501892,646.894836 
	C984.202148,651.020813 983.497986,655.979553 987.760620,658.974365 
	C994.322815,663.584778 1001.438477,667.603210 1008.757019,670.901794 
	C1025.224609,678.324097 1042.286621,684.379089 1057.390991,694.696655 
	C1078.480713,709.102844 1087.637695,728.938660 1084.898560,754.060364 
	C1082.967651,771.768188 1075.500977,787.178650 1062.182007,799.184143 
	C1050.166016,810.015198 1035.753906,816.389160 1020.026733,820.043152 
	C1005.570557,823.401855 990.857666,823.929260 976.276672,822.814453 
	C949.519043,820.768677 923.945312,813.680359 900.667908,800.039673 
	C889.924622,793.744019 880.056213,785.955383 869.314636,778.513550 
	C881.647461,760.349487 893.321777,743.155273 905.028259,725.913696 
	C921.440552,739.789062 938.711121,751.501892 958.813477,758.161987 
	C966.420593,760.682190 974.611755,761.439270 983.008728,763.000000 
z"/>
<path fill="#00AEEF" opacity="1.000000" stroke="none" 
	d="
M1984.993896,738.933533 
	C1982.661499,750.854980 1980.244873,762.323181 1978.032104,773.830566 
	C1975.264038,788.224426 1972.720703,802.661743 1969.881958,817.041138 
	C1969.656860,818.181641 1967.891602,819.864746 1966.833862,819.870728 
	C1939.360962,820.027039 1911.886841,819.994385 1884.029175,819.994385 
	C1886.122559,808.596741 1888.070435,797.595947 1890.174683,786.625122 
	C1893.394043,769.840332 1896.705933,753.073181 1900.007568,736.304321 
	C1902.868896,721.772278 1905.828979,707.259460 1908.639404,692.717712 
	C1911.822388,676.248108 1914.827515,659.744019 1918.017944,643.275879 
	C1922.197510,621.702454 1926.566406,600.165466 1930.697144,578.582825 
	C1934.249023,560.024780 1937.562866,541.421265 1941.018555,522.844666 
	C1942.329224,515.799072 1943.619507,508.744110 1945.233765,501.766266 
	C1945.492432,500.648529 1947.406738,499.125519 1948.562866,499.119232 
	C1975.868652,498.970154 2003.175293,499.003540 2031.123657,499.003540 
	C2029.966553,505.434692 2028.948608,511.451935 2027.792969,517.442627 
	C2024.895020,532.466064 2021.939941,547.478455 2018.998657,562.493469 
	C2016.151001,577.029785 2013.228516,591.551880 2010.452515,606.101807 
	C2006.576538,626.418640 2002.867432,646.767273 1998.972778,667.080383 
	C1995.600830,684.667236 1992.063843,702.222412 1988.612427,719.794006 
	C1987.388794,726.024719 1986.203003,732.262878 1984.993896,738.933533 
z"/>
<path fill="#1F1B6C" opacity="1.000000" stroke="none" 
	d="
M240.968018,531.833252 
	C238.961914,541.943420 236.923065,551.603455 235.013504,561.289001 
	C231.066299,581.309937 227.152664,601.337646 223.292969,621.375549 
	C220.472900,636.016174 217.808014,650.686707 214.987061,665.327148 
	C212.474960,678.364502 209.796585,691.369751 207.276611,704.405701 
	C204.139587,720.633545 201.133728,736.886658 197.988617,753.112915 
	C195.431503,766.305542 192.691986,779.462891 190.150665,792.658447 
	C188.647705,800.462524 187.325745,808.302551 186.021805,816.142944 
	C185.590012,818.739319 184.707809,820.083069 181.644241,820.069397 
	C154.487122,819.948425 127.329239,819.999084 100.171593,819.985107 
	C99.538750,819.984802 98.905983,819.821716 97.664452,819.650696 
	C98.881233,812.441772 99.917198,805.408386 101.275368,798.437683 
	C104.433594,782.228516 107.779503,766.055969 110.989624,749.856750 
	C114.987495,729.682495 119.000374,709.510742 122.864075,689.310608 
	C125.696579,674.501709 128.190414,659.627869 131.037415,644.821899 
	C133.512894,631.947998 136.362503,619.146423 138.881241,606.280457 
	C141.683502,591.966370 144.306015,577.617004 146.992874,563.280396 
	C149.679581,548.944641 152.266724,534.588989 155.165054,520.296326 
	C155.428879,518.995361 157.635635,517.147522 158.950455,517.138977 
	C187.099243,516.956299 215.249496,517.000366 243.527039,517.000366 
	C242.658569,521.935181 241.826172,526.664917 240.968018,531.833252 
z"/>
<path fill="#FFFFFF" opacity="1.000000" stroke="none" 
	d="
M1736.263428,661.228516 
	C1742.848999,655.833130 1750.451660,653.980835 1758.233154,653.079285 
	C1768.789917,651.856201 1782.777222,659.902893 1787.768799,669.371643 
	C1796.829956,686.560181 1795.678589,703.990662 1789.091431,721.524048 
	C1783.896484,735.351685 1775.320557,746.341003 1761.650391,752.704712 
	C1737.697021,763.855286 1715.671265,750.389099 1711.895996,724.736938 
	C1709.770752,710.295532 1711.861450,696.738647 1718.019043,683.718201 
	C1722.193237,674.891968 1727.671143,667.006775 1736.263428,661.228516 
z"/>
<path fill="#FFFFFF" opacity="1.000000" stroke="none" 
	d="
M1538.810547,644.951111 
	C1551.261230,649.986389 1558.575073,665.676819 1553.363159,679.838867 
	C1530.128174,679.838867 1506.833374,679.838867 1482.239014,679.838867 
	C1485.707031,673.898621 1488.514404,668.315979 1492.034790,663.226562 
	C1498.702026,653.587830 1507.304199,645.815613 1519.076294,643.741882 
	C1525.267090,642.651245 1531.957886,644.399353 1538.810547,644.951111 
z"/>
</svg>